<svg version="1.1" id="Layer_1" xmlns="http://www.w3.org/2000/svg" xmlns:xlink="http://www.w3.org/1999/xlink" x="0px" y="0px"
	 width="100%" viewBox="0 0 592 640" enable-background="new 0 0 592 640" xml:space="preserve">
<path fill="#000000" opacity="1.000000" stroke="none" 
	d="
M593.000000,451.531311 
	C578.664551,461.091919 564.346130,470.210846 549.990234,479.270416 
	C514.785767,501.487061 479.595398,523.726440 444.340973,545.863708 
	C402.173370,572.341919 359.947876,598.727844 317.733704,625.131775 
	C315.949127,626.247925 314.336395,627.867676 311.920471,627.688354 
	C310.131744,626.304016 310.721832,624.327698 310.717743,622.603577 
	C310.668243,601.612915 310.746521,580.621582 310.613403,559.631592 
	C310.589752,555.898743 311.769409,553.402710 314.964325,551.401733 
	C334.267670,539.311951 353.459229,527.073364 373.117523,515.525635 
	C402.684479,498.157288 431.643982,479.751282 460.789520,461.670074 
	C495.447296,440.169250 530.792114,419.830719 566.008362,399.274963 
	C574.756226,394.168884 582.802734,387.853668 592.633789,383.990356 
	C593.000000,406.354218 593.000000,428.708466 593.000000,451.531311 
z"/>
<path fill="#000000" opacity="1.000000" stroke="none" 
	d="
M593.000000,373.583344 
	C576.620178,382.194183 560.914307,391.612122 544.912720,400.492950 
	C540.692200,402.835327 536.424500,405.113617 532.355286,407.699677 
	C529.886353,409.268738 527.856079,409.150238 525.460876,407.667938 
	C495.883148,389.363281 466.240845,371.164215 436.223389,353.584320 
	C434.391541,352.511505 432.248474,351.731720 431.443268,349.394745 
	C431.753662,347.207275 433.767181,346.713226 435.240021,345.803162 
	C453.366394,334.602356 471.613159,323.592987 489.613586,312.194305 
	C493.677429,309.620911 496.500793,310.056152 500.358734,312.452026 
	C530.197449,330.982727 560.172607,349.293549 590.111633,367.662659 
	C590.815918,368.094818 591.590759,368.412018 592.666382,368.891418 
	C593.000000,370.388885 593.000000,371.777802 593.000000,373.583344 
z"/>
<path fill="#000000" opacity="1.000000" stroke="none" 
	d="
M271.955505,25.891346 
	C280.702057,21.265125 288.404724,15.448749 296.954071,11.669469 
	C298.542816,13.474791 298.336334,14.861222 298.313751,16.155558 
	C297.860596,42.150372 298.945129,68.126152 299.348511,94.109451 
	C299.413910,98.322243 297.954895,100.752243 294.370544,102.907799 
	C242.852478,133.889389 191.415207,165.005310 139.952301,196.078644 
	C131.259598,201.327301 122.512138,206.485672 113.843826,211.774002 
	C111.026215,213.492966 108.378891,213.777237 105.394966,212.174042 
	C81.334808,199.246902 57.223213,186.415421 33.177719,173.461182 
	C26.740448,169.993195 26.731941,168.675522 32.905861,165.049744 
	C51.848217,153.925491 70.819778,142.850693 89.809158,131.806824 
	C141.488876,101.750854 193.184875,71.722900 244.871109,41.678173 
	C253.799835,36.487991 262.712372,31.269957 271.955505,25.891346 
z"/>
<path fill="#000000" opacity="1.000000" stroke="none" 
	d="
M292.186829,625.934204 
	C240.828125,592.766663 189.767715,559.820129 138.729935,526.838562 
	C102.512093,503.433990 66.579506,479.572205 29.958839,456.816925 
	C19.809578,450.510406 15.457590,443.881500 16.430000,431.827362 
	C17.618212,417.098145 16.702688,402.200256 16.733265,387.375366 
	C16.736980,385.574280 16.384472,383.710114 17.421406,381.681976 
	C21.214510,381.456543 24.173481,383.745453 27.134428,385.601135 
	C68.891479,411.770874 111.041672,437.299652 153.042847,463.072021 
	C200.292023,492.064606 247.308731,521.435852 294.486298,550.545593 
	C297.254150,552.253418 298.240723,554.197205 298.397003,557.366028 
	C299.291534,575.502808 299.436340,593.645630 299.398956,611.797729 
	C299.390778,615.775024 300.080139,619.749268 300.246460,623.733398 
	C300.318726,625.464539 300.984192,627.657166 299.078552,628.770447 
	C297.132446,629.907349 295.698242,628.127686 294.175079,627.220276 
	C293.603424,626.879639 293.054230,626.501343 292.186829,625.934204 
z"/>
<path fill="#000000" opacity="1.000000" stroke="none" 
	d="
M271.252472,319.703949 
	C279.726807,324.735443 287.822266,329.698669 296.093201,334.349884 
	C299.311615,336.159790 300.336609,338.507080 300.313049,342.048981 
	C300.197754,359.372925 300.282898,376.698151 300.273895,394.022919 
	C300.270935,399.751099 298.463898,400.784302 293.236084,397.967773 
	C283.417419,392.677948 273.637024,387.317230 263.837860,381.991272 
	C210.004730,352.732361 156.178894,323.459961 102.333328,294.223938 
	C77.608437,280.799316 52.849907,267.436493 28.089401,254.077606 
	C25.434898,252.645432 23.722916,251.016312 23.737446,247.562347 
	C23.831352,225.240662 23.716978,202.918137 23.688503,180.595871 
	C23.686829,179.284241 23.515041,177.912582 24.477839,176.614899 
	C26.948158,175.573517 28.812595,177.204269 30.736231,178.387634 
	C67.334908,200.902374 104.812965,221.879166 142.386703,242.709015 
	C168.004868,256.911041 193.009872,272.222382 218.678970,286.328125 
	C236.835434,296.305542 253.436630,308.590881 271.252472,319.703949 
z"/>
<path fill="#000000" opacity="1.000000" stroke="none" 
	d="
M300.083191,236.251801 
	C300.107849,263.387115 300.144714,290.051605 300.129211,316.716095 
	C300.125397,323.287079 299.348969,323.743103 293.759521,320.513275 
	C278.615173,311.762115 263.511993,302.939758 248.371124,294.182526 
	C245.768280,292.677094 244.347244,291.016418 244.282928,287.545807 
	C243.884537,266.051727 244.107330,244.569992 244.434280,223.076935 
	C244.816620,197.942230 243.596695,172.799774 244.497406,147.656158 
	C244.599030,144.819107 245.379868,143.041061 247.839981,141.611771 
	C263.251129,132.658142 278.600342,123.597916 293.975159,114.581696 
	C295.251770,113.833061 296.535217,113.048012 298.141571,113.167023 
	C300.022034,115.021385 299.292084,117.312378 299.297424,119.353859 
	C299.376343,149.518951 299.338867,179.684387 299.440765,209.849365 
	C299.469940,218.493851 299.854492,227.137131 300.083191,236.251801 
z"/>
<path fill="#000000" opacity="1.000000" stroke="none" 
	d="
M158.494080,331.462158 
	C167.258942,336.569519 175.704514,341.496948 184.086151,346.387085 
	C183.378647,349.413483 181.247894,350.238281 179.468521,351.298737 
	C148.858337,369.541351 118.199059,387.701935 87.642220,406.033295 
	C84.389458,407.984650 81.901390,408.162628 78.531219,406.279663 
	C58.762356,395.234375 38.841171,384.462189 19.025177,373.500580 
	C11.898433,369.558258 11.903933,368.013885 19.108223,363.655731 
	C46.180882,347.278595 73.305695,330.987671 100.411285,314.664978 
	C103.692551,312.689056 107.126976,310.924866 110.216339,308.684570 
	C113.398460,306.377045 116.121796,306.652863 119.362083,308.581360 
	C132.241226,316.246490 145.227921,323.730865 158.494080,331.462158 
z"/>
<path fill="#000000" opacity="1.000000" stroke="none" 
	d="
M300.075592,417.209229 
	C300.119629,457.471710 300.166718,497.259674 300.176636,537.047607 
	C300.177063,538.799438 300.847748,541.001770 298.884583,542.052795 
	C296.953094,543.086975 295.425751,541.401672 293.960724,540.436951 
	C277.981018,529.914307 262.053497,519.312195 246.056473,508.816010 
	C243.725281,507.286438 242.641769,505.475586 242.710220,502.658142 
	C243.368988,475.543396 243.993561,448.427673 244.541061,421.310455 
	C244.752762,410.825562 244.723251,400.335938 244.851181,389.849060 
	C244.872818,388.073303 244.472092,386.175079 245.606964,384.735840 
	C247.226196,383.709076 248.359055,384.638763 249.495987,385.228668 
	C264.849670,393.194763 280.225891,401.118591 296.154633,407.893585 
	C300.368958,409.686096 299.979828,413.254089 300.075592,417.209229 
z"/>
<path fill="#000000" opacity="1.000000" stroke="none" 
	d="
M585.937134,177.540558 
	C585.785950,200.796371 585.517944,223.614746 585.269409,246.433304 
	C585.236633,249.442993 583.722229,251.225250 581.118774,252.656784 
	C520.979431,285.724640 460.864838,318.837585 400.765015,351.977234 
	C372.026642,367.823883 343.326050,383.738892 314.612946,399.631348 
	C309.052185,402.709167 307.709076,401.912659 307.706482,395.421936 
	C307.699371,377.590057 307.843689,359.756348 307.607147,341.927643 
	C307.551117,337.705383 308.925232,335.397186 312.565491,333.277466 
	C380.953796,293.455261 449.264740,253.500183 517.586426,213.563675 
	C538.010559,201.625061 558.409241,189.642853 578.847046,177.727753 
	C581.002014,176.471420 583.225647,174.166077 585.937134,177.540558 
M349.613464,375.029785 
	C400.689514,346.935486 451.769226,318.847839 502.840027,290.744049 
	C527.354431,277.254028 551.853333,263.735748 576.355469,250.223389 
	C578.535889,249.020950 580.670959,247.999069 580.775574,244.820343 
	C581.449890,224.343857 581.948730,203.867462 581.583984,183.378860 
	C581.576782,182.974564 581.147827,182.577774 580.951355,182.239044 
	C579.165100,182.163452 578.005005,183.223083 576.737732,183.961090 
	C555.726868,196.197128 534.715942,208.433136 513.729736,220.711334 
	C476.069916,242.744614 438.430115,264.812195 400.775177,286.853821 
	C372.891541,303.175720 345.021088,319.520477 317.078064,335.740204 
	C313.475891,337.831116 312.083374,340.413727 312.149780,344.595123 
	C312.387848,359.586151 312.268097,374.582703 312.335968,389.576874 
	C312.343140,391.162231 311.812561,392.949829 313.923126,394.712280 
	C325.464447,388.350006 337.218475,381.870483 349.613464,375.029785 
z"/>
<path fill="#000000" opacity="1.000000" stroke="none" 
	d="
M467.873901,103.080681 
	C502.278290,123.836784 536.378662,144.392014 570.458252,164.981659 
	C576.901855,168.874619 576.884705,170.707001 570.403320,174.447617 
	C548.904785,186.855194 527.361267,199.185013 505.887787,211.635712 
	C502.158325,213.798096 498.875824,213.740524 495.172394,211.492661 
	C461.136200,190.833801 427.039551,170.274643 392.964325,149.680084 
	C366.303101,133.566437 339.685303,117.380203 312.945374,101.398293 
	C309.232666,99.179298 307.612335,96.736053 307.646820,92.286964 
	C307.845703,66.622467 307.723724,40.955601 307.784760,15.289712 
	C307.789642,13.232348 306.798615,10.583577 308.945648,9.251050 
	C311.493317,7.669852 313.699463,9.742000 315.785553,11.004079 
	C366.387085,41.618149 416.973511,72.257195 467.873901,103.080681 
M480.835938,115.730888 
	C424.977295,81.971321 369.118622,48.211758 312.242737,13.837392 
	C312.242737,17.042133 312.241333,18.684496 312.242981,20.326855 
	C312.266602,43.811443 312.384216,67.296684 312.222198,90.779984 
	C312.195312,94.679893 313.650879,96.765358 316.838074,98.690529 
	C376.552765,134.759964 436.229828,170.891830 495.832397,207.146118 
	C499.329681,209.273422 501.951385,209.226562 505.369781,207.220596 
	C519.729248,198.794189 534.233398,190.614853 548.663940,182.309097 
	C555.535522,178.354004 562.360596,174.318268 570.206543,169.735046 
	C540.039185,151.517883 510.741425,133.825836 480.835938,115.730888 
z"/>
<path fill="#000000" opacity="1.000000" stroke="none" 
	d="
M308.658112,222.000031 
	C308.618988,200.015366 308.304932,178.531540 308.161530,157.051071 
	C308.084961,145.579041 307.789062,134.095749 307.917938,122.617676 
	C307.976654,117.385201 309.305878,116.586914 313.863190,119.292030 
	C329.190582,128.389984 344.449921,137.602478 359.765137,146.721069 
	C362.769775,148.510010 364.298676,150.922821 364.161102,154.486328 
	C364.051971,157.312317 364.294403,160.149948 364.269989,162.981430 
	C363.982574,196.303421 365.868408,229.599716 365.416138,262.926361 
	C365.314606,270.409088 365.817444,277.908508 366.273132,285.386139 
	C366.457855,288.417725 365.496338,290.365265 362.896454,291.941406 
	C346.802155,301.698364 330.795715,311.600220 314.696747,321.349365 
	C310.437012,323.928955 308.770050,322.633240 308.761902,316.979523 
	C308.716431,285.486359 308.691162,253.993195 308.658112,222.000031 
M312.354279,209.499802 
	C312.775757,244.809250 313.197266,280.118713 313.621155,315.629547 
	C315.084961,315.399445 315.655884,315.465515 316.036407,315.227356 
	C330.426483,306.219055 345.164307,297.758179 358.940430,287.780304 
	C361.336609,286.044769 361.757080,283.933868 361.705658,281.316589 
	C361.427673,267.168610 361.786438,253.022736 361.153442,238.865570 
	C359.926361,211.420853 361.298950,183.925095 359.915222,156.468567 
	C359.742706,153.045456 358.675720,151.091995 355.715576,149.377701 
	C343.038513,142.036011 330.512573,134.433685 317.914062,126.955750 
	C316.534058,126.136627 315.261414,124.875885 312.353577,125.583153 
	C312.353577,153.069733 312.353577,180.784775 312.354279,209.499802 
z"/>
<path fill="#000000" opacity="1.000000" stroke="none" 
	d="
M308.657532,481.000061 
	C308.371399,459.210724 308.169769,437.919678 307.727692,416.633575 
	C307.641052,412.461853 308.949768,409.916321 312.694122,407.884918 
	C328.201660,399.471741 343.569275,390.800323 358.973999,382.198151 
	C364.682526,379.010529 366.307800,379.909790 366.309296,386.447449 
	C366.317841,424.411713 366.262909,462.376129 366.382080,500.339996 
	C366.393585,504.002472 364.976776,506.161621 362.077118,508.051117 
	C347.439270,517.589417 332.877930,527.245056 318.282837,536.849060 
	C317.310455,537.488892 316.322693,538.131958 315.270813,538.619812 
	C310.852142,540.668884 308.754272,539.369202 308.737427,534.450134 
	C308.677002,516.800232 308.679321,499.150085 308.657532,481.000061 
M361.664551,498.001190 
	C361.667389,463.213074 361.683838,428.424927 361.660614,393.636810 
	C361.656403,387.328522 360.678986,386.687164 355.101318,389.709778 
	C342.375427,396.606079 329.814178,403.810181 317.011505,410.558167 
	C313.340546,412.493011 312.274872,414.866852 312.247253,418.819031 
	C311.991302,455.434265 312.976959,492.035706 313.321777,528.643555 
	C313.336212,530.173828 312.644897,532.012451 314.986267,533.501953 
	C329.834076,523.518372 344.859558,513.421692 359.874786,503.309692 
	C361.443634,502.253113 361.630951,500.582855 361.664551,498.001190 
z"/>
</svg>